<mxfile host="app.diagrams.net" modified="2024-08-10T06:08:01.860Z" agent="Mozilla/5.0 (Windows NT 10.0; Win64; x64) AppleWebKit/537.36 (KHTML, like Gecko) Chrome/127.0.0.0 Safari/537.36" version="24.3.1" etag="_pVFEko_d_QQq3zWJt41" type="github">
  <diagram name="페이지-1" id="3paxneE6WjGDVCeuhaqR">
    <mxGraphModel>
      <root>
        <mxCell id="0" />
        <mxCell id="1" parent="0" />
      </root>
    </mxGraphModel>
  </diagram>
</mxfile>
